<?xml version="1.0" encoding="UTF-8"?>
<svg version="1.1" xmlns="http://www.w3.org/2000/svg" viewBox="989.91 -42.94 507.77 507.77">
<path d="M0 0 C4.22052679 2.8077198 6.17493777 5.62483856 8.3828125 10.14453125 C8.67891922 10.74245483 8.97502594 11.34037842 9.28010559 11.9564209 C10.24027311 13.90287547 11.18279043 15.85729826 12.125 17.8125 C12.79015025 19.1706301 13.45625705 20.52829212 14.12329102 21.88549805 C16.09891596 25.91565086 18.05097899 29.95693265 20 34 C20.54092285 35.11761719 21.0818457 36.23523438 21.63916016 37.38671875 C25.61976265 45.61906436 29.54113318 53.87847438 33.41796875 62.16015625 C33.79252197 62.9596167 34.1670752 63.75907715 34.55297852 64.58276367 C35.24733193 66.06745604 35.93937683 67.55323112 36.62866211 69.0402832 C37.97349251 72.24193746 37.97349251 72.24193746 40 75 C40.42708252 74.22100342 40.85416504 73.44200684 41.29418945 72.6394043 C55.64982862 46.47711409 55.64982862 46.47711409 62.3125 34.8125 C62.74925049 34.03672607 63.18600098 33.26095215 63.63598633 32.46166992 C65.53048809 29.17427409 66.795833 27.13611134 70 25 C74.30633619 24.44177123 76.31983237 24.56072507 80 26.9375 C82.4519631 30.6920685 82.22415188 32.17629679 81.62841797 36.45581055 C80.45492384 41.20677494 78.00461304 45.23388737 75.5625 49.4375 C75.02334961 50.39398438 74.48419922 51.35046875 73.92871094 52.3359375 C72.82517369 54.29229664 71.7156535 56.24529332 70.60009766 58.19482422 C69.13333129 60.76625319 67.6907558 63.34886804 66.26171875 65.94140625 C65.84051758 66.70549805 65.41931641 67.46958984 64.98535156 68.25683594 C64.16825078 69.74053594 63.35119279 71.22425952 62.53417969 72.70800781 C60.61170578 76.17726366 58.64928094 79.60471739 56.56640625 82.98046875 C56.18581055 83.60824219 55.80521484 84.23601562 55.41308594 84.8828125 C54.39035491 86.55983729 53.34640555 88.22387157 52.30078125 89.88671875 C50.47143112 94.26507328 51.08362554 97.6456928 52.8021698 102.06089783 C53.85840758 104.37316339 54.97630904 106.64433868 56.12109375 108.9140625 C56.53634811 109.75845383 56.95160248 110.60284515 57.37944031 111.4728241 C58.72131254 114.19573808 60.07743938 116.9111291 61.4375 119.625 C63.29102913 123.32780575 65.1419724 127.03186948 66.98828125 130.73828125 C67.43745911 131.63812241 67.88663696 132.53796356 68.34942627 133.46507263 C70.75326179 138.3245442 72.96423456 143.17335153 74.91796875 148.23046875 C77.8352503 156.77727927 77.8352503 156.77727927 83.83007812 163.11035156 C88.28045298 164.84620867 92.8047678 165.27797052 97.53076172 165.69677734 C101.80317777 166.22143037 105.83567948 167.47919916 109.9375 168.75 C110.77128174 169.00418701 111.60506348 169.25837402 112.46411133 169.52026367 C138.87699718 177.79740656 161.95269818 191.21717764 183 209 C181.77232591 205.31697772 180.03911008 201.95574092 178.29736328 198.49707031 C177.72380348 197.35214111 177.72380348 197.35214111 177.13865662 196.18408203 C176.3058072 194.52219287 175.47203382 192.86076652 174.63745499 191.19974518 C173.30505183 188.54775041 171.9751841 185.894498 170.64596558 183.24090576 C167.33450881 176.63134471 164.0188554 170.02389119 160.70306396 163.41650391 C157.46897526 156.97154804 154.23676414 150.52565624 151.0078125 144.078125 C150.33275036 142.73028175 150.33275036 142.73028175 149.6440506 141.35520935 C144.26596161 130.61082376 138.95011728 119.84600646 133.8130188 108.98394775 C128.08028345 96.88884648 122.01311048 84.95736545 116 73 C107.49243053 56.08228035 99.03906746 39.14667978 91 22 C90.30052246 20.53735718 90.30052246 20.53735718 89.58691406 19.04516602 C88.90000488 17.58421509 88.90000488 17.58421509 88.19921875 16.09375 C87.78115967 15.21267578 87.36310059 14.33160156 86.93237305 13.42382812 C85.56227652 9.86207942 85.69269886 7.55876421 87 4 C89.125 1.5 89.125 1.5 92 0 C95.74429877 0 98.01864688 0.21801447 100.98046875 2.578125 C103.60263426 5.72269486 105.10152514 9.02390187 106.75 12.75 C109.24522858 18.29374697 111.85870831 23.76608815 114.5871582 29.19897461 C114.93651208 29.89613177 115.28586596 30.59328894 115.64580631 31.31157207 C116.3879514 32.79242435 117.13041139 34.27311884 117.87316513 35.75366592 C119.33142082 38.66068409 120.78781949 41.56863072 122.24426556 44.47655582 C123.36984217 46.72372898 124.4957421 48.97073994 125.62168884 51.21772766 C128.56445754 57.09092031 131.50515414 62.96515009 134.44564724 68.83948231 C136.66200096 73.266976 138.87910698 77.69408969 141.09790039 82.12036133 C143.27458592 86.46271829 145.44920795 90.80610329 147.62251472 95.15015221 C148.43772566 96.77875963 149.25362675 98.40702182 150.07031059 100.03489113 C154.80716898 109.47794959 159.44647075 118.95874222 163.93889523 128.52084827 C166.76248693 134.52997611 169.68576858 140.48309473 172.68212891 146.40820312 C177.11466875 155.18659852 181.52537479 163.9760038 185.9348278 172.7660141 C187.45299316 175.79204943 188.97265437 178.81731333 190.49584961 181.84082031 C198.84524283 198.41789277 206.87580121 215.10463647 214.61190796 231.97802734 C216.18375383 235.40004484 217.77233396 238.81400363 219.36457825 242.2265625 C220.57312351 244.82256262 221.76934318 247.42408456 222.9621582 250.02734375 C223.54808312 251.30046456 224.13852543 252.5715128 224.73266602 253.84082031 C225.63071305 255.76151811 226.51404729 257.68838768 227.39453125 259.6171875 C227.89831299 260.70628418 228.40209473 261.79538086 228.92114258 262.91748047 C230.07324159 266.20926643 230.36345219 268.54066512 230 272 C227.45077306 275.47621856 225.66448969 276.78253065 221.5625 278.125 C217.01625363 277.96548258 215.02406424 276.15579163 212 273 C209.9344608 270.29111927 208.12603927 267.44424254 206.3125 264.5625 C179.66623735 223.5577368 141.43397568 195.47267886 94 183 C93.34 183 92.68 183 92 183 C92.39678955 183.78834229 92.7935791 184.57668457 93.20239258 185.38891602 C107.31776636 213.4587756 107.31776636 213.4587756 113.84033203 227.26782227 C116.11573502 232.08150142 118.42426574 236.87478382 120.80097961 241.6391449 C122.11467055 244.27421557 123.41824812 246.91424047 124.72164917 249.55441284 C125.35857257 250.83741634 126.00033907 252.11802852 126.64724731 253.39602661 C127.55213387 255.18480117 128.43851291 256.98290096 129.32421875 258.78125 C129.84072998 259.81314453 130.35724121 260.84503906 130.8894043 261.90820312 C132.17659991 265.49163801 132.3299343 268.21864138 132 272 C129.38882396 275.30748965 127.37396185 276.81680509 123.1875 277.375 C118.87356632 276.86747839 117.82241647 275.24249706 115 272 C113.70949889 269.77275357 112.58225262 267.63384908 111.5 265.3125 C110.80947703 263.88238568 110.11800035 262.45273162 109.42578125 261.0234375 C109.04502441 260.2303418 108.66426758 259.43724609 108.27197266 258.62011719 C106.34172816 254.64403581 104.34571517 250.70156208 102.35717773 246.75439453 C96.6997253 235.51559517 91.17979704 224.21859399 85.78515625 212.8515625 C83.7708832 208.6075394 81.7332073 204.37550652 79.68359375 200.1484375 C79.13195557 199.00834229 78.58031738 197.86824707 78.01196289 196.69360352 C76.94236831 194.48438423 75.87005549 192.27647836 74.79467773 190.07006836 C74.31329346 189.07370361 73.83190918 188.07733887 73.3359375 187.05078125 C72.69470947 185.73074097 72.69470947 185.73074097 72.04052734 184.3840332 C71.10962768 182.25117651 70.47740184 180.27144505 70 178 C47.96506063 175.94362442 26.10906673 175.76947556 4 176 C3.41734375 177.12792969 2.8346875 178.25585938 2.234375 179.41796875 C-2.70968532 188.93121347 -7.83246799 198.31254583 -13.18676758 207.60083008 C-17.34253555 214.81950198 -21.40261083 222.08814911 -25.4375 229.375 C-30.28387163 238.12045838 -35.14804103 246.85508863 -40.0625 255.5625 C-40.57417725 256.47112793 -41.08585449 257.37975586 -41.61303711 258.31591797 C-43.06487449 260.88343305 -44.53040339 263.44261616 -46 266 C-46.51546387 266.91249512 -47.03092773 267.82499023 -47.56201172 268.76513672 C-48.07650879 269.65604004 -48.59100586 270.54694336 -49.12109375 271.46484375 C-49.57798584 272.26398193 -50.03487793 273.06312012 -50.50561523 273.88647461 C-52.12635877 276.17871065 -53.62301783 277.51970807 -56 279 C-58.9375 279.5 -58.9375 279.5 -62 279 C-65.25036094 276.61640198 -66.70778964 274.84976117 -68.01953125 271.03515625 C-68.67810325 265.19347757 -64.74880632 260.29769184 -61.875 255.5 C-61.23554443 254.3970459 -60.59608887 253.2940918 -59.93725586 252.15771484 C-58.61181911 249.87157748 -57.27931289 247.5895249 -55.93994141 245.31152344 C-53.09069226 240.44779131 -50.32691863 235.53726561 -47.5625 230.625 C-47.03930176 229.70066162 -46.51610352 228.77632324 -45.97705078 227.82397461 C-41.08977773 219.18880639 -36.27067381 210.51613899 -31.46313477 201.83642578 C-26.67934398 193.20317317 -21.84624621 184.59829011 -17 176 C-22.56297708 176.43155048 -28.12540168 176.86976828 -33.6875 177.3125 C-34.52078827 177.37869537 -35.35407654 177.44489075 -36.21261597 177.51309204 C-48.66883949 178.50806403 -61.09411911 179.65246688 -73.50854492 181.08520508 C-80.70480958 181.88467089 -87.76069919 182.15392371 -95 182 C-95.28198242 182.73307373 -95.56396484 183.46614746 -95.85449219 184.22143555 C-96.89078379 186.73508319 -98.03229257 189.06968529 -99.328125 191.45703125 C-99.79089844 192.30974609 -100.25367188 193.16246094 -100.73046875 194.04101562 C-101.23191406 194.95560547 -101.73335937 195.87019531 -102.25 196.8125 C-102.77722656 197.77736328 -103.30445313 198.74222656 -103.84765625 199.73632812 C-108.34824485 207.92065376 -113.04552184 215.98179438 -117.78393555 224.0300293 C-121.67477198 230.66141911 -125.41634653 237.35633955 -129.0625 244.125 C-133.25671555 251.8964892 -137.5875642 259.57391568 -142.0625 267.1875 C-142.61107666 268.12674316 -143.15965332 269.06598633 -143.72485352 270.03369141 C-144.49720337 271.33765869 -144.49720337 271.33765869 -145.28515625 272.66796875 C-145.73769775 273.43391357 -146.19023926 274.1998584 -146.65649414 274.98901367 C-147.98117729 276.9718258 -149.14126834 278.50545393 -151 280 C-154.17138997 280.46036306 -155.98810887 280.72074438 -159 280 C-162.23026789 277.1735156 -163.85722201 275.44217974 -164.28564453 271.11474609 C-163.96958426 267.66833847 -163.14929336 265.77316636 -161.4296875 262.7890625 C-160.87031494 261.80437988 -160.31094238 260.81969727 -159.73461914 259.80517578 C-159.12094482 258.75571777 -158.50727051 257.70625977 -157.875 256.625 C-157.24263428 255.5201123 -156.61026855 254.41522461 -155.95874023 253.27685547 C-153.98738032 249.84218031 -151.99727472 246.41965886 -150 243 C-149.40751465 241.98421875 -148.8150293 240.9684375 -148.20458984 239.921875 C-145.9223683 236.01281924 -143.63808278 232.10501318 -141.34570312 228.2019043 C-134.87285218 217.1495658 -128.69936771 205.93520421 -122.51074219 194.72216797 C-120.70267877 191.46426442 -118.86153787 188.22759179 -117 185 C-117.63856934 185.06928711 -118.27713867 185.13857422 -118.93505859 185.20996094 C-127.96025314 186.08251544 -136.94715535 186.21991089 -146.00634766 186.24023438 C-148.59961467 186.24990533 -151.19207509 186.28101505 -153.78515625 186.3125 C-162.26118679 186.36845005 -170.56926992 186.05386406 -178.9609375 184.796875 C-180.0678746 184.64693085 -180.0678746 184.64693085 -181.19717407 184.49395752 C-186.23649902 183.6316265 -188.8619868 182.01599484 -192 178 C-192.77533825 173.65810577 -192.50177019 171.78610663 -190.125 168.0625 C-184.17169881 164.13332121 -177.79120064 165.8261878 -171.06640625 167.01171875 C-163.82792729 168.14225259 -156.75274768 168.3024357 -149.4375 168.25 C-148.78111542 168.24822754 -148.12473083 168.24645508 -147.44845581 168.24462891 C-133.24720005 168.20015309 -119.14536251 167.24953748 -105 166 C-104.58947388 164.67295044 -104.58947388 164.67295044 -104.1706543 163.3190918 C-103.09518432 160.26987087 -101.86492056 157.69669282 -100.26953125 154.89453125 C-99.72127686 153.92443115 -99.17302246 152.95433105 -98.6081543 151.95483398 C-98.01558838 150.91786377 -97.42302246 149.88089355 -96.8125 148.8125 C-95.5437225 146.57062273 -94.27551321 144.32842383 -93.0078125 142.0859375 C-92.68018417 141.50792892 -92.35255585 140.92992035 -92.01499939 140.33439636 C-88.36451555 133.89165668 -84.77649279 127.41462784 -81.1875 120.9375 C-74.81178995 109.4492609 -68.39019575 97.98875854 -61.91796875 86.5546875 C-60.7994089 84.57816477 -59.6809208 82.60160142 -58.5625 80.625 C-58.00361084 79.63741699 -57.44472168 78.64983398 -56.86889648 77.63232422 C-53.53113455 71.72806439 -50.22092106 65.80961816 -46.9375 59.875 C-45.29478107 56.9149267 -43.6482514 53.95699587 -42 51 C-41.24275635 49.6397168 -41.24275635 49.6397168 -40.47021484 48.25195312 C-38.8625565 45.37207164 -37.24496319 42.49797476 -35.625 39.625 C-35.12476318 38.7263623 -34.62452637 37.82772461 -34.10913086 36.90185547 C-29.36978556 28.53773974 -29.36978556 28.53773974 -26 26 C-23.25523194 25.27092098 -20.775541 25.44147224 -18 26 C-15.03044068 27.97970621 -14.20633034 29.29908369 -13.203125 32.70703125 C-12.94639044 36.86909345 -14.25383925 39.50793656 -16.1875 43.0625 C-16.54408691 43.74586426 -16.90067383 44.42922852 -17.26806641 45.13330078 C-21.31040525 52.78322672 -25.65591865 60.2713886 -29.984375 67.76171875 C-32.74622744 72.54407505 -35.45056709 77.35580437 -38.125 82.1875 C-38.73625732 83.29121948 -38.73625732 83.29121948 -39.35986328 84.41723633 C-40.17356851 85.88764153 -40.98688592 87.35826142 -41.79980469 88.82910156 C-43.77907998 92.40919023 -45.76405224 95.98610933 -47.75 99.5625 C-48.15597412 100.2937207 -48.56194824 101.02494141 -48.98022461 101.77832031 C-53.11714142 109.22270886 -57.28336416 116.65063527 -61.44921875 124.07885742 C-64.69894491 129.87758755 -67.93751584 135.68228037 -71.16015625 141.49609375 C-71.50330368 142.11493942 -71.84645111 142.7337851 -72.19999695 143.37138367 C-73.86907051 146.38194866 -75.53660418 149.39335198 -77.2019043 152.40600586 C-78.09969604 154.02647827 -78.09969604 154.02647827 -79.015625 155.6796875 C-79.80888184 157.11417236 -79.80888184 157.11417236 -80.61816406 158.57763672 C-81.67366127 160.42792705 -82.8183911 162.22758665 -84 164 C-83.32657562 163.86763443 -82.65315125 163.73526886 -81.95932007 163.59889221 C-75.5141819 162.37338551 -69.13663955 161.51244407 -62.6015625 160.96484375 C-61.645914 160.88126114 -60.6902655 160.79767853 -59.70565796 160.71156311 C-57.69412509 160.53688797 -55.68237009 160.36475368 -53.67041016 160.19506836 C-50.66634909 159.94099714 -47.66326215 159.67720535 -44.66015625 159.41210938 C-42.6823004 159.2420859 -40.70443584 159.07216368 -38.7265625 158.90234375 C-37.75354691 158.81463715 -36.78053131 158.72693054 -35.7780304 158.63656616 C-30.86308741 158.21763531 -26.02065209 157.96134019 -21.08666992 158.00830078 C-11.76229905 158.40828946 -11.76229905 158.40828946 -3.36621094 155.17163086 C-1.43402613 152.525946 -0.25998401 150.04721779 0.9375 147 C1.93634691 144.89857084 2.93774363 142.79835215 3.94140625 140.69921875 C4.4327002 139.6014209 4.92399414 138.50362305 5.43017578 137.37255859 C8.08415363 131.6708401 11.25237833 126.267049 14.375 120.8125 C16.02637331 117.85748602 17.67320283 114.90004781 19.31542969 111.93994141 C20.50164252 109.86974215 21.73635552 107.82696019 23.00488281 105.80615234 C23.65553711 104.76023926 24.30619141 103.71432617 24.9765625 102.63671875 C25.87882568 101.23039185 25.87882568 101.23039185 26.79931641 99.7956543 C28.36811336 96.14289018 28.16081021 94.81824842 27 91 C25.41499766 87.28286091 23.62982673 83.67862581 21.8203125 80.06640625 C21.29291473 78.99744614 20.76551697 77.92848602 20.22213745 76.82713318 C18.53044431 73.40189239 16.82814225 69.98206013 15.125 66.5625 C12.91667114 62.10675395 10.71242669 57.64899111 8.5078125 53.19140625 C7.96513733 52.09631744 7.42246216 51.00122864 6.86334229 49.87295532 C1.8186485 39.67731314 -3.09748702 29.42208039 -7.97146606 19.14390564 C-8.66208584 17.70435796 -9.37561234 16.27559593 -10.11056519 14.85816956 C-11.77288279 11.38532601 -11.66567584 7.74013743 -11 4 C-7.77123438 0.10648852 -4.96361941 -0.8272699 0 0 Z " fill="#040404" transform="translate(1225,71)"/>
<path d="M0 0 C0.66 0 1.32 0 2 0 C14.82029855 26.54001348 14.82029855 26.54001348 19.3125 36.0625 C19.84488281 37.18785156 20.37726563 38.31320313 20.92578125 39.47265625 C22 42 22 42 22 44 C20.52094768 44.02779013 19.04172942 44.04673956 17.5625 44.0625 C16.73878906 44.07410156 15.91507813 44.08570313 15.06640625 44.09765625 C12.6556141 44.02087943 10.38639067 43.82546255 8 43.53125 C1.83020696 42.8056571 -4.35756617 42.64696373 -10.5625 42.4375 C-11.76197266 42.39431641 -12.96144531 42.35113281 -14.19726562 42.30664062 C-17.13141793 42.20143198 -20.0656425 42.09929117 -23 42 C-17.27035738 30.00201837 -10.59457519 18.53718047 -4 7 C-3.36239746 5.88359131 -3.36239746 5.88359131 -2.71191406 4.74462891 C-1.80837473 3.16283908 -0.90427108 1.58137162 0 0 Z " fill="#F9F9F9" transform="translate(1263,186)"/>
</svg>
