<?xml version="1.0" encoding="UTF-8"?>
<svg version="1.1" xmlns="http://www.w3.org/2000/svg" viewBox="990.13 -42.83 507.80 507.80">
<path d="M0 0 C4.47765285 3.76241971 6.71906556 7.81986131 9.15234375 13 C9.52953049 13.78100067 9.90671722 14.56200134 10.29533386 15.3666687 C11.51918817 17.90653668 12.72831999 20.45311801 13.9375 23 C14.77942561 24.75325258 15.62236988 26.50601633 16.46630859 28.25830078 C18.5850626 32.6625668 20.69262701 37.07208305 22.79742432 41.48303223 C25.588629 47.32496993 28.40250404 53.15600742 31.21585083 58.98730469 C32.11275941 60.84958447 33.00588574 62.71363704 33.89819336 64.578125 C34.42936768 65.68414062 34.96054199 66.79015625 35.5078125 67.9296875 C35.96816895 68.89116699 36.42852539 69.85264648 36.90283203 70.84326172 C37.82169873 72.92490808 37.82169873 72.92490808 39 74 C39.42708252 73.22100342 39.85416504 72.44200684 40.29418945 71.6394043 C54.64982862 45.47711409 54.64982862 45.47711409 61.3125 33.8125 C61.74925049 33.03672607 62.18600098 32.26095215 62.63598633 31.46166992 C64.53048809 28.17427409 65.795833 26.13611134 69 24 C73.36253463 23.43448625 75.29752588 23.50677349 78.9375 26.0625 C80.95353286 28.93381952 81.56895967 30.34496761 81.45288086 33.80249023 C80.39261218 38.9472225 77.37063731 43.47388481 74.8125 48 C73.87096069 49.70639648 73.87096069 49.70639648 72.91040039 51.44726562 C70.96107072 54.97666746 68.983288 58.48959761 67 62 C66.38672852 63.08796875 65.77345703 64.1759375 65.14160156 65.296875 C60.56433122 73.40760826 60.56433122 73.40760826 58.3527832 77.26171875 C57.35907333 78.99866651 56.38695241 80.74817957 55.43896484 82.51049805 C54 85 54 85 52.22119141 87.21801758 C50.25976899 89.9607645 49.42516488 91.6319097 49 95 C50.56398576 101.65873215 54.29051122 107.71326396 57.5 113.6875 C58.40108058 115.43323026 59.29812574 117.18104924 60.19116211 118.9309082 C61.95781996 122.38372667 63.74218381 125.82632668 65.54248047 129.26171875 C68.70915152 135.32928585 71.65327346 141.49251637 74.5625 147.6875 C75.39606127 149.441917 76.23058467 151.19587745 77.06640625 152.94921875 C77.39584229 153.64362061 77.72527832 154.33802246 78.06469727 155.0534668 C78.52767212 156.01700073 78.52767212 156.01700073 79 157 C79.30276855 157.72324463 79.60553711 158.44648926 79.91748047 159.19165039 C80.95479788 161.38442952 80.95479788 161.38442952 84.25390625 161.984375 C85.68793828 162.25148523 87.12441437 162.50565298 88.5625 162.75 C106.28723622 166.23991054 123.7824122 172.01965403 140 180 C140.6899707 180.33612305 141.37994141 180.67224609 142.09082031 181.01855469 C156.36732959 188.05065232 168.74116635 196.88787454 181 207 C180.32894523 203.81848644 179.20853223 201.17218779 177.75186157 198.26994324 C177.27836273 197.32164139 176.80486389 196.37333954 176.3170166 195.39630127 C175.79555054 194.36213074 175.27408447 193.32796021 174.73681641 192.26245117 C174.18863251 191.16739761 173.64044861 190.07234406 173.07565308 188.94410706 C171.88193262 186.56093405 170.68678034 184.17854506 169.4891243 181.79735374 C167.58325998 178.00800215 165.68315011 174.21578339 163.78378296 170.423172 C160.76479825 164.39659582 157.74209321 158.37189467 154.71775091 152.34800559 C149.34031351 141.63719777 143.96698412 130.92433201 138.59821451 120.20917684 C136.72219932 116.46539668 134.84388681 112.72278145 132.96373856 108.98107541 C126.30787022 95.73143912 119.76078067 82.44024757 113.41043091 69.0413208 C109.11702598 60.00758847 104.56431412 51.09939873 100.04150391 42.17895508 C95.86041713 33.92396724 91.73190322 25.64893678 87.921875 17.21484375 C87.62355774 16.57349991 87.32524048 15.93215607 87.0178833 15.27137756 C85.2944795 11.36948951 84.50790587 8.25707125 85 4 C87.43070667 0.71139686 88.9075515 -0.76756415 92.9375 -1.625 C96.90550126 -0.81520382 99.26801137 1.13083708 102 4 C103.50589686 6.4954811 104.75180774 8.8203418 105.95703125 11.44921875 C106.32524994 12.21775681 106.69346863 12.98629486 107.07284546 13.77812195 C107.89222638 15.49077302 108.70522655 17.20648723 109.51278687 18.92474365 C111.85301442 23.89928638 114.24567396 28.84862362 116.6328125 33.80078125 C117.44956703 35.49902039 117.44956703 35.49902039 118.28282166 37.23156738 C123.4787261 48.01180001 128.82122519 58.71780669 134.1796875 69.41796875 C134.62856764 70.31440535 135.07744778 71.21084194 135.53993034 72.13444328 C139.20626464 79.45434094 142.87730865 86.7718738 146.54950333 94.08883286 C149.61197028 100.19096061 152.672719 106.29394447 155.73046875 112.3984375 C156.14517488 113.22615725 156.55988102 114.05387699 156.98715401 114.90667915 C162.33414854 125.58531284 167.61950095 136.2867243 172.70292664 147.09408569 C175.15981947 152.31146806 177.75824498 157.42664718 180.5 162.5 C184.9457442 170.76831529 188.98486475 179.20691628 193 187.69140625 C195.05308845 192.02698991 197.13891471 196.34470665 199.25 200.65234375 C206.76205097 216.00741579 213.87919195 231.49674292 220.75854492 247.14526367 C221.24991943 248.26206512 221.24991943 248.26206512 221.7512207 249.40142822 C222.3618368 250.79088256 222.97092546 252.18100966 223.578125 253.57196045 C224.87073787 256.51795713 226.20926269 259.40897878 227.67504883 262.27368164 C229.26837748 265.55223352 229.6124911 267.40161477 229 271 C226.45077306 274.47621856 224.66448969 275.78253065 220.5625 277.125 C216.00586686 276.96511814 214.03160696 275.16107556 211 272 C208.77473068 269.12431125 206.79559946 266.10852623 204.8125 263.0625 C193.25631899 245.78188985 180.62642861 229.68117436 164 217 C163.06671875 216.26265625 162.1334375 215.5253125 161.171875 214.765625 C140.05856806 198.39434422 116.54018454 189.21916427 91 182 C91.52207031 183.06919678 92.04414062 184.13839355 92.58203125 185.23999023 C95.0552437 190.3055554 97.52776264 195.37145888 100 200.4375 C100.44907715 201.35771942 100.8981543 202.27793884 101.36083984 203.2260437 C108.25415236 217.35318731 115.12776846 231.48970986 121.97265625 245.64038086 C122.2822226 246.27988678 122.59178894 246.9193927 122.91073608 247.57827759 C123.77259588 249.35896059 124.63363241 251.14004199 125.49462891 252.92114258 C126.76615131 255.52172139 128.07214125 258.09904864 129.3984375 260.671875 C131.26442434 264.54948667 131.79998359 266.76008699 131 271 C128.11949992 274.22341676 126.19081827 275.75697586 121.9375 276.625 C118.12473556 275.81377352 116.35254723 273.95701816 114 271 C112.10473516 267.96742879 110.48747313 264.81516165 108.875 261.625 C108.39691895 260.69510254 107.91883789 259.76520508 107.42626953 258.80712891 C103.18384147 250.4961998 99.15692887 242.08522713 95.1640625 233.65234375 C91.61349074 226.16303858 87.99585575 218.70658283 84.37408447 211.25152588 C82.93231415 208.28351599 81.49150137 205.31504953 80.05551147 202.34423828 C79.36526951 200.9308172 78.66449582 199.52248828 77.95303345 198.11962891 C76.26334061 194.76689469 74.79119367 191.51974633 73.66601562 187.93408203 C72.33373695 184.01167722 70.89587286 181.06052667 68 178 C61.47442161 175.12706844 54.00961409 175.23677907 47 175 C45.05646273 174.90476802 43.11294051 174.80922833 41.16943359 174.71337891 C35.34256472 174.46676373 29.51873343 174.38005075 23.6875 174.3125 C21.66339126 174.27920072 19.63930191 174.24470034 17.61523438 174.20898438 C12.74360034 174.12555997 7.87199916 174.05809552 3 174 C2.72397949 174.721875 2.44795898 175.44375 2.16357422 176.1875 C1.04201082 178.89845475 -0.22110633 181.42110737 -1.6171875 184 C-2.13531006 184.9583374 -2.65343262 185.9166748 -3.18725586 186.90405273 C-3.74421143 187.92571533 -4.30116699 188.94737793 -4.875 190 C-5.74620483 191.60307007 -5.74620483 191.60307007 -6.63500977 193.23852539 C-10.80353881 200.87903682 -15.07235225 208.45669679 -19.41210938 216.00097656 C-23.27960755 222.72497763 -27.08850381 229.48007654 -30.875 236.25 C-31.45362793 237.28141113 -32.03225586 238.31282227 -32.62841797 239.37548828 C-35.39824031 244.31859119 -38.15349514 249.26841621 -40.86444092 254.24411011 C-41.81331828 255.98391975 -42.76722699 257.72098227 -43.72119141 259.45800781 C-44.92107534 261.64395388 -46.11259194 263.83452027 -47.29443359 266.03027344 C-47.83793457 267.01672852 -48.38143555 268.00318359 -48.94140625 269.01953125 C-49.41263916 269.88682861 -49.88387207 270.75412598 -50.36938477 271.64770508 C-52.27155014 274.39173313 -54.2565636 276.10977903 -57 278 C-60.96178018 278.6602967 -62.45174139 278.36550574 -65.8125 276.125 C-68.40404446 273.60749966 -68.93749299 272.78475708 -69.22314453 269.19848633 C-68.97680636 265.66754931 -68.19473322 263.86459147 -66.4296875 260.82421875 C-65.87007324 259.84420898 -65.31045898 258.86419922 -64.73388672 257.85449219 C-64.1204541 256.80938477 -63.50702148 255.76427734 -62.875 254.6875 C-61.58295514 252.43641494 -60.29129936 250.18510653 -59 247.93359375 C-58.32832295 246.77185819 -57.65644758 245.61023726 -56.984375 244.44873047 C-53.89457832 239.07884022 -50.88869775 233.66282925 -47.875 228.25 C-38.07966119 210.73935051 -28.07383695 193.35158923 -18 176 C-30.35415828 175.80521099 -42.46532566 176.49861991 -54.75292969 177.76879883 C-56.25319274 177.92199965 -57.75351854 178.0745873 -59.25390625 178.2265625 C-59.99232758 178.30216904 -60.7307489 178.37777557 -61.49154663 178.45567322 C-66.2505918 178.91450728 -70.92851655 179.05708698 -75.71484375 179.0234375 C-87.33517969 178.89614629 -87.33517969 178.89614629 -97.27783203 184.08154297 C-101.69036827 189.73272353 -104.58442001 196.07622301 -107.45507812 202.60986328 C-109.96960206 208.12766975 -113.03807939 213.31266352 -116.0625 218.5625 C-117.23258772 220.65173353 -118.39927181 222.74287702 -119.5625 224.8359375 C-127.29621593 238.71036353 -135.09149376 252.54644709 -143.125 266.25 C-143.66970947 267.18545654 -144.21441895 268.12091309 -144.77563477 269.0847168 C-145.54025024 270.38082886 -145.54025024 270.38082886 -146.3203125 271.703125 C-146.76648926 272.46270508 -147.21266602 273.22228516 -147.67236328 274.00488281 C-148.99015061 275.98519874 -150.14352645 277.51136726 -152 279 C-156.92224114 279.63512789 -158.88387501 279.76733593 -163 276.9375 C-165.5181746 273.23893105 -165.37476162 271.41470359 -165 267 C-163.75341797 264.03173828 -163.75341797 264.03173828 -161.9921875 261.0703125 C-161.34233887 259.95817383 -160.69249023 258.84603516 -160.02294922 257.70019531 C-159.3070599 256.50840722 -158.59107438 255.31667691 -157.875 254.125 C-157.14038141 252.87698062 -156.40749527 251.62793999 -155.67626953 250.37792969 C-154.55366042 248.45951319 -153.42992979 246.54185572 -152.30050659 244.62744141 C-148.72132014 238.55899625 -145.29031253 232.41197481 -141.875 226.25 C-134.14233512 212.37142774 -126.18906643 198.61464454 -118 185 C-118.60118149 185.00444122 -119.20236298 185.00888245 -119.82176208 185.01345825 C-126.16638778 185.05823637 -132.51096752 185.08808847 -138.85571289 185.10986328 C-141.21315336 185.11982588 -143.57058179 185.13340083 -145.92797852 185.15087891 C-183.4808823 185.42201901 -183.4808823 185.42201901 -191 180 C-193.32106991 176.79471299 -193.55405751 173.87840257 -193 170 C-191.0625 167.125 -191.0625 167.125 -188 165 C-182.53376714 164.38284468 -177.61103002 165.19743215 -172.19140625 166.01171875 C-164.07075708 167.14707032 -156.00111114 167.31140861 -147.8125 167.25 C-147.09920532 167.24756287 -146.38591064 167.24512573 -145.65100098 167.24261475 C-125.27640328 167.97217633 -125.27640328 167.97217633 -106 163 C-104.33569476 160.90018084 -104.33569476 160.90018084 -103.08984375 158.29296875 C-102.58138916 157.32496338 -102.07293457 156.35695801 -101.54907227 155.35961914 C-101.01725342 154.31281982 -100.48543457 153.26602051 -99.9375 152.1875 C-98.78076804 149.98065716 -97.6218738 147.77494649 -96.4609375 145.5703125 C-95.59033691 143.90597168 -95.59033691 143.90597168 -94.70214844 142.20800781 C-92.2570778 137.59982821 -89.67392457 133.0778873 -87.0625 128.5625 C-82.67650951 120.94553043 -78.349273 113.2982706 -74.0625 105.625 C-69.03487043 96.62764509 -63.98116431 87.64573296 -58.90136719 78.67773438 C-55.45108076 72.58159988 -52.02652162 66.47163238 -48.61450195 60.35400391 C-43.90329355 51.91199844 -39.17942505 43.47847294 -34.3125 35.125 C-33.91458252 34.4355127 -33.51666504 33.74602539 -33.10668945 33.03564453 C-29.43051434 26.7810912 -29.43051434 26.7810912 -27 25 C-22.68055941 24.52006216 -20.26364476 24.27340427 -16.5 26.4375 C-14.23660703 30.30412966 -14.23195659 33.70056018 -15 38 C-16.98482832 42.72626836 -19.53976321 47.08635084 -22.125 51.5 C-22.85978745 52.78701596 -23.59267042 54.07512094 -24.32373047 55.36425781 C-25.8158644 57.98985495 -27.31767278 60.60950903 -28.828125 63.22460938 C-31.40364895 67.68979638 -33.91454642 72.19024536 -36.42260742 76.69360352 C-38.12564718 79.75116192 -39.83689671 82.80397779 -41.55078125 85.85546875 C-44.53808026 91.17560852 -47.51959914 96.49896224 -50.49951172 101.82324219 C-55.16252318 110.15462329 -59.8289194 118.48403054 -64.51538086 126.80224609 C-66.86918411 130.98254837 -69.21356074 135.16805266 -71.5546875 139.35546875 C-72.18439453 140.48146484 -72.81410156 141.60746094 -73.46289062 142.76757812 C-74.71485503 145.00679128 -75.96618177 147.2463611 -77.21679688 149.48632812 C-77.79236328 150.51564453 -78.36792969 151.54496094 -78.9609375 152.60546875 C-79.47446777 153.52481201 -79.98799805 154.44415527 -80.51708984 155.39135742 C-81.97282856 157.9522017 -83.47393721 160.48054598 -85 163 C-84.4176358 162.9123941 -83.83527161 162.82478821 -83.23526001 162.73452759 C-71.24197028 160.9751546 -59.46319938 159.8118488 -47.3359375 159.7109375 C-24.38347306 160.68142174 -24.38347306 160.68142174 -3.39941406 153.77294922 C1.74912702 148.21983709 3.84863764 141.71449129 5.859375 134.52929688 C7.84081488 128.39836901 11.22616333 123.07898139 14.5 117.5625 C15.61938455 115.56648708 16.73419542 113.56790019 17.84375 111.56640625 C19.41561157 108.73989025 21.01174034 105.98192078 22.7734375 103.26904297 C23.61261719 101.97377686 23.61261719 101.97377686 24.46875 100.65234375 C24.97857422 99.89816162 25.48839844 99.14397949 26.01367188 98.36694336 C27.36519378 95.12362532 26.92414764 93.37085346 26 90 C25.00735704 87.70569673 23.92788078 85.44802374 22.7890625 83.22265625 C22.30325462 82.26369949 22.30325462 82.26369949 21.80763245 81.28536987 C21.11375962 79.91748543 20.41633476 78.55139795 19.71566772 77.1869812 C17.86569685 73.5834746 16.04242535 69.96645992 14.21484375 66.3515625 C13.85008438 65.63195847 13.48532501 64.91235443 13.10951233 64.17094421 C9.59728496 57.2327693 6.21503138 50.23626567 2.89770508 43.20288086 C0.61717429 38.36832952 -1.70966323 33.56579301 -4.1171875 28.79296875 C-4.63047607 27.76115479 -5.14376465 26.72934082 -5.67260742 25.66625977 C-6.65074613 23.70257341 -7.64220001 21.74543753 -8.6496582 19.79663086 C-11.39010466 14.24686229 -13.25027724 9.24644439 -12 3 C-8.42845755 -1.54559948 -5.3662666 -1.62904522 0 0 Z " fill="#FBFBFA" transform="translate(1226,72)"/>
<path d="M0 0 C3.56908805 2.37939203 4.17707656 4.0278027 5.92578125 7.8984375 C6.3308918 8.78373642 6.3308918 8.78373642 6.7441864 9.68692017 C7.60842112 11.57937156 8.46090612 13.47683126 9.3125 15.375 C10.43016688 17.84271035 11.55276875 20.30815631 12.67578125 22.7734375 C12.9497171 23.3781488 13.22365295 23.98286011 13.50588989 24.605896 C15.83195473 29.71208423 18.34220205 34.71223754 20.92260742 39.69384766 C22 42 22 42 22 44 C7.15 43.67 -7.7 43.34 -23 43 C-21.57446503 38.72339508 -20.41161925 35.65975055 -18.2421875 31.875 C-17.70231201 30.9269751 -17.16243652 29.9789502 -16.60620117 29.00219727 C-16.03490479 28.01147217 -15.4636084 27.02074707 -14.875 26 C-14.29403564 24.98284912 -13.71307129 23.96569824 -13.11450195 22.91772461 C-11.41416458 19.9425472 -9.70729134 16.97119043 -8 14 C-7.1203446 12.46006311 -6.24135086 10.9197479 -5.36328125 9.37890625 C-3.58004965 6.24999881 -1.79203371 3.12387749 0 0 Z " fill="#0F0F0F" transform="translate(1263,186)"/>
</svg>
