<svg xmlns="http://www.w3.org/2000/svg" viewBox="0 0 64 64" fill="none">
  <circle cx="32" cy="32" r="32" fill="#74ACDF"/>
  <circle cx="32" cy="32" r="24" fill="#ffffff" fill-opacity="0.12"/>
  <g fill="#ffffff">
    <path d="M32 16c-5.2 0-9 3.4-9 8.2 0 3 1.5 5.2 4 6.6l-2.1 2.9h3.9l1.1-1.6c.7.2 1.4.3 2.2.3s1.5-.1 2.2-.3l1.1 1.6h3.9L39.2 31c2.5-1.4 4-3.6 4-6.6C43.2 19.4 39.4 16 34.2 16H32zm.7 4c2.6 0 4.4 1.7 4.4 4.2 0 1.5-.7 2.7-1.8 3.5l-4.9-6.9c.6-.5 1.4-.8 2.3-.8zm-4.9 2.3 5 7c-.3.1-.6.1-.9.1-2.6 0-4.4-1.7-4.4-4.2 0-1.1.4-2.1 1.1-2.9z"/>
    <rect x="22" y="38" width="20" height="3.2" rx="1.6"/>
    <rect x="22" y="43.5" width="20" height="3.2" rx="1.6"/>
  </g>
</svg>
