<?xml version="1.0" encoding="utf-8"?>
<!-- Generator: Adobe Illustrator 25.4.1, SVG Export Plug-In . SVG Version: 6.00 Build 0)  -->
<svg version="1.1" id="Layer_1" xmlns="http://www.w3.org/2000/svg" xmlns:xlink="http://www.w3.org/1999/xlink" x="0px" y="0px"
	 viewBox="0 0 144 28" style="enable-background:new 0 0 144 28;" xml:space="preserve">
<style type="text/css">
	.st0{fill:#FFFFFF;}
</style>
<g id="Grupo_557" transform="translate(0 0)">
	<g id="Grupo_556" transform="translate(0 0.001)">
		<path id="Trazado_1367" class="st0" d="M6.4,22.4h6c2.2,0,4.2-0.7,4.2-3.4c0-2.6-1.7-3.7-4.1-3.7H6.4L6.4,22.4z M6.4,11.6h5.7
			c2,0,3.5-0.9,3.5-3.1c0-2.4-1.9-2.9-3.9-2.9H6.4L6.4,11.6z M0.7,1.2h12.1c4.9,0,8.2,1.6,8.2,6.4c0.1,2.3-1.3,4.5-3.5,5.4
			c2.9,0.7,4.9,3.5,4.7,6.5c0,5.2-4.4,7.4-9.1,7.4H0.7L0.7,1.2z"/>
	</g>
	<path id="Trazado_1368" class="st0" d="M32.5,16.9h6.7l-3.2-9.4h-0.1L32.5,16.9z M33.1,1.2h5.8l9.6,25.7h-5.9l-1.9-5.7H31l-2,5.7
		h-5.7L33.1,1.2z"/>
	<path id="Trazado_1369" class="st0" d="M50.7,1.2h5.6v20.9h12.5v4.7H50.7V1.2z"/>
	<path id="Trazado_1370" class="st0" d="M78.5,16.9h6.7l-3.2-9.4h-0.1L78.5,16.9z M79,1.2h5.8l9.6,25.7h-5.9l-1.9-5.7H77l-2,5.7
		h-5.7L79,1.2z"/>
	<path id="Trazado_1371" class="st0" d="M96.6,1.2h5.6l10.7,17.2h0.1V1.2h5.3v25.7h-5.6L102,9.7h-0.1v17.2h-5.3V1.2z"/>
	<path id="Trazado_1372" class="st0" d="M121.6,22.4l13.8-16.5h-12.7V1.2h20.2v4.5l-13.8,16.5h14.1v4.7h-21.6V22.4z"/>
</g>
</svg>
