<svg xmlns="http://www.w3.org/2000/svg" xmlns:xlink="http://www.w3.org/1999/xlink" viewBox="0 0 42 42"><path d="M 21 0 C 9.48 0 0 9.48 0 21 C 0 32.52 9.48 42 21 42 C 32.52 42 42 32.52 42 21 C 41.99 9.483 32.516 0.01 21 0 Z M 32.015 21.977 C 31.881 22.09 31.73 22.179 31.566 22.241 C 31.38 22.319 31.185 22.372 30.985 22.4 C 30.529 22.47 30.065 22.462 29.611 22.374 C 28.582 22.16 27.598 21.766 26.706 21.211 C 25.774 20.635 24.898 19.972 24.09 19.231 C 23.685 18.843 23.289 18.446 22.902 18.041 C 22.512 17.628 22.141 17.196 21.792 16.747 C 21.649 16.557 21.383 16.511 21.185 16.642 C 20.971 16.776 20.901 17.055 21.026 17.275 C 21.343 17.777 21.686 18.253 22.03 18.728 C 22.374 19.204 22.77 19.653 23.166 20.102 C 23.962 20.999 24.847 21.814 25.807 22.532 C 26.809 23.286 27.936 23.858 29.136 24.222 C 29.544 24.33 29.958 24.409 30.377 24.46 C 30.462 24.464 30.542 24.504 30.597 24.569 C 30.652 24.634 30.677 24.719 30.667 24.804 C 30.666 24.853 30.648 24.9 30.615 24.936 C 29.924 26.101 29.09 27.175 28.132 28.132 C 25.2 31.064 21.449 32.675 18.042 32.675 C 16.617 32.699 15.207 32.391 13.921 31.777 L 13.631 31.645 C 13.532 31.591 13.412 31.591 13.313 31.645 L 13.049 31.83 C 12.619 32.117 12.114 32.273 11.596 32.28 C 11.162 32.304 10.739 32.14 10.434 31.83 C 9.879 31.276 9.853 30.219 10.408 29.294 L 10.566 29.004 C 10.619 28.905 10.619 28.786 10.566 28.687 L 10.408 28.397 C 8.955 25.649 9.06 22.03 10.54 18.675 C 10.613 18.515 10.802 18.444 10.962 18.517 C 11.038 18.54 11.098 18.599 11.121 18.675 C 11.421 19.405 11.793 20.105 12.231 20.762 C 12.893 21.768 13.663 22.698 14.528 23.536 C 14.943 23.959 15.384 24.356 15.849 24.725 C 16.304 25.1 16.771 25.461 17.249 25.807 C 17.446 25.951 17.722 25.912 17.872 25.719 C 18.022 25.527 17.992 25.25 17.804 25.094 C 17.381 24.724 16.959 24.328 16.562 23.932 C 16.17 23.531 15.791 23.117 15.426 22.691 C 14.723 21.846 14.104 20.935 13.577 19.97 C 13.072 19.052 12.74 18.049 12.6 17.011 C 12.521 16.557 12.521 16.092 12.6 15.638 C 12.65 15.458 12.711 15.281 12.785 15.109 L 12.89 14.951 C 13.196 14.581 13.522 14.228 13.868 13.894 C 18.174 9.562 24.17 8.136 28.396 10.408 L 28.713 10.566 C 28.812 10.619 28.931 10.619 29.03 10.566 L 29.32 10.381 C 30.298 9.747 31.407 9.721 32.015 10.328 C 32.623 10.936 32.596 12.098 31.909 13.102 L 31.699 13.366 C 31.638 13.461 31.628 13.579 31.672 13.683 L 31.83 14 C 32.913 16.298 32.966 19.151 32.015 21.977 Z" fill="#FFFFFF"></path></svg>
